<svg width="21" height="17" viewBox="0 0 21 17" fill="none" xmlns="http://www.w3.org/2000/svg">
<path d="M18.7997 0.279127C19.0653 0.312981 19.3168 0.413073 19.5273 0.569166C19.7378 0.725345 19.9 0.932643 19.997 1.1678C20.0938 1.40285 20.1215 1.65831 20.078 1.90706L17.8105 14.8485C17.5905 16.0967 16.1348 16.8127 14.9179 16.1912C13.8999 15.671 12.3873 14.8694 11.0273 14.033C10.3472 13.6144 8.26505 12.274 8.52042 11.3201C8.74041 10.5045 12.2401 7.43926 14.2401 5.61702C15.0251 4.90111 14.6671 4.4878 13.7401 5.14631C11.4382 6.78129 7.74247 9.26765 6.52042 9.9676C5.44259 10.5846 4.88075 10.6901 4.20889 10.5848C2.98296 10.3929 1.84585 10.0954 0.917876 9.73323C-0.336124 9.24404 -0.2751 7.62247 0.9169 7.15022L18.0165 0.376783C18.2636 0.278982 18.5341 0.245292 18.7997 0.279127Z" fill="#D4D4D4"/>
</svg>
